<?xml version="1.0" encoding="UTF-8" standalone="no"?>
<!DOCTYPE svg PUBLIC "-//W3C//DTD SVG 1.1//EN"
 "http://www.w3.org/Graphics/SVG/1.1/DTD/svg11.dtd">
<!-- Generated by graphviz version 2.43.0 (0)
 -->
<!-- Title: G Pages: 1 -->
<svg width="488pt" height="44pt"
 viewBox="0.00 0.00 488.16 44.00" xmlns="http://www.w3.org/2000/svg" xmlns:xlink="http://www.w3.org/1999/xlink">
<g id="graph0" class="graph" transform="scale(1 1) rotate(0) translate(4 40)">
<title>G</title>
<polygon fill="white" stroke="transparent" points="-4,4 -4,-40 484.16,-40 484.16,4 -4,4"/>
<!-- Kate -->
<g id="node1" class="node">
<title>Kate</title>
<ellipse fill="none" stroke="black" cx="32.5" cy="-18" rx="32.49" ry="18"/>
<text text-anchor="middle" x="32.5" y="-14.3" font-family="Times,serif" font-size="14.00">Kate</text>
</g>
<!-- KTextEditor -->
<g id="node2" class="node">
<title>KTextEditor</title>
<ellipse fill="none" stroke="black" cx="167.94" cy="-18" rx="66.89" ry="18"/>
<text text-anchor="middle" x="167.94" y="-14.3" font-family="Times,serif" font-size="14.00">KTextEditor</text>
</g>
<!-- Kate&#45;&gt;KTextEditor -->
<g id="edge1" class="edge">
<title>Kate&#45;&gt;KTextEditor</title>
<path fill="none" stroke="black" d="M65.12,-18C72.96,-18 81.7,-18 90.68,-18"/>
<polygon fill="black" stroke="black" points="90.88,-21.5 100.88,-18 90.88,-14.5 90.88,-21.5"/>
</g>
<!-- Syntax Highlighting -->
<g id="node3" class="node">
<title>Syntax Highlighting</title>
<ellipse fill="none" stroke="black" cx="375.52" cy="-18" rx="104.78" ry="18"/>
<text text-anchor="middle" x="375.52" y="-14.3" font-family="Times,serif" font-size="14.00">Syntax Highlighting</text>
</g>
<!-- KTextEditor&#45;&gt;Syntax Highlighting -->
<g id="edge2" class="edge">
<title>KTextEditor&#45;&gt;Syntax Highlighting</title>
<path fill="none" stroke="black" d="M235.12,-18C243.3,-18 251.84,-18 260.49,-18"/>
<polygon fill="black" stroke="black" points="260.67,-21.5 270.67,-18 260.67,-14.5 260.67,-21.5"/>
</g>
</g>
</svg>
