<?xml version="1.0" encoding="UTF-8" standalone="no"?>
<!DOCTYPE svg PUBLIC "-//W3C//DTD SVG 1.1//EN"
 "http://www.w3.org/Graphics/SVG/1.1/DTD/svg11.dtd">
<!-- Generated by graphviz version 2.43.0 (0)
 -->
<!-- Title: %3 Pages: 1 -->
<svg width="372pt" height="188pt"
 viewBox="0.00 0.00 372.00 188.00" xmlns="http://www.w3.org/2000/svg" xmlns:xlink="http://www.w3.org/1999/xlink">
<g id="graph0" class="graph" transform="scale(1 1) rotate(0) translate(4 184)">
<title>%3</title>
<polygon fill="white" stroke="transparent" points="-4,4 -4,-184 368,-184 368,4 -4,4"/>
<!-- vfs -->
<g id="node1" class="node">
<title>vfs</title>
<polygon fill="none" stroke="black" points="281.5,-108 82.5,-108 82.5,-72 281.5,-72 281.5,-108"/>
<text text-anchor="middle" x="182" y="-86.3" font-family="Times,serif" font-size="14.00">Virtual File System (VFS)</text>
</g>
<!-- ext2 -->
<g id="node3" class="node">
<title>ext2</title>
<polygon fill="none" stroke="black" points="54,-36 0,-36 0,0 54,0 54,-36"/>
<text text-anchor="middle" x="27" y="-14.3" font-family="Times,serif" font-size="14.00">ext2</text>
</g>
<!-- vfs&#45;&#45;ext2 -->
<g id="edge2" class="edge">
<title>vfs&#45;&#45;ext2</title>
<path fill="none" stroke="black" d="M143.05,-71.91C119.76,-61.63 89.62,-48.21 63,-36 60.11,-34.67 57.1,-33.28 54.1,-31.87"/>
</g>
<!-- ext3 -->
<g id="node4" class="node">
<title>ext3</title>
<polygon fill="none" stroke="black" points="126,-36 72,-36 72,0 126,0 126,-36"/>
<text text-anchor="middle" x="99" y="-14.3" font-family="Times,serif" font-size="14.00">ext3</text>
</g>
<!-- vfs&#45;&#45;ext3 -->
<g id="edge3" class="edge">
<title>vfs&#45;&#45;ext3</title>
<path fill="none" stroke="black" d="M161.48,-71.7C148.62,-60.85 132.1,-46.92 119.28,-36.1"/>
</g>
<!-- Reiserfs -->
<g id="node5" class="node">
<title>Reiserfs</title>
<polygon fill="none" stroke="black" points="219.5,-36 144.5,-36 144.5,0 219.5,0 219.5,-36"/>
<text text-anchor="middle" x="182" y="-14.3" font-family="Times,serif" font-size="14.00">Reiserfs</text>
</g>
<!-- vfs&#45;&#45;Reiserfs -->
<g id="edge4" class="edge">
<title>vfs&#45;&#45;Reiserfs</title>
<path fill="none" stroke="black" d="M182,-71.7C182,-60.85 182,-46.92 182,-36.1"/>
</g>
<!-- VFAT -->
<g id="node6" class="node">
<title>VFAT</title>
<polygon fill="none" stroke="black" points="292,-36 238,-36 238,0 292,0 292,-36"/>
<text text-anchor="middle" x="265" y="-14.3" font-family="Times,serif" font-size="14.00">VFAT</text>
</g>
<!-- vfs&#45;&#45;VFAT -->
<g id="edge5" class="edge">
<title>vfs&#45;&#45;VFAT</title>
<path fill="none" stroke="black" d="M202.52,-71.7C215.38,-60.85 231.9,-46.92 244.72,-36.1"/>
</g>
<!-- NFS -->
<g id="node7" class="node">
<title>NFS</title>
<polygon fill="none" stroke="black" points="364,-36 310,-36 310,0 364,0 364,-36"/>
<text text-anchor="middle" x="337" y="-14.3" font-family="Times,serif" font-size="14.00">NFS</text>
</g>
<!-- vfs&#45;&#45;NFS -->
<g id="edge6" class="edge">
<title>vfs&#45;&#45;NFS</title>
<path fill="none" stroke="black" d="M220.95,-71.91C244.24,-61.63 274.38,-48.21 301,-36 303.89,-34.67 306.9,-33.28 309.9,-31.87"/>
</g>
<!-- Application -->
<g id="node2" class="node">
<title>Application</title>
<polygon fill="none" stroke="black" points="230.5,-180 133.5,-180 133.5,-144 230.5,-144 230.5,-180"/>
<text text-anchor="middle" x="182" y="-158.3" font-family="Times,serif" font-size="14.00">Application</text>
</g>
<!-- Application&#45;&#45;vfs -->
<g id="edge1" class="edge">
<title>Application&#45;&#45;vfs</title>
<path fill="none" stroke="black" d="M182,-143.7C182,-132.85 182,-118.92 182,-108.1"/>
</g>
</g>
</svg>
