<?xml version="1.0" encoding="UTF-8" standalone="no"?>
<!DOCTYPE svg PUBLIC "-//W3C//DTD SVG 1.1//EN"
 "http://www.w3.org/Graphics/SVG/1.1/DTD/svg11.dtd">
<!-- Generated by graphviz version 2.43.0 (0)
 -->
<!-- Title: G Pages: 1 -->
<svg width="635pt" height="44pt"
 viewBox="0.00 0.00 634.65 44.00" xmlns="http://www.w3.org/2000/svg" xmlns:xlink="http://www.w3.org/1999/xlink">
<g id="graph0" class="graph" transform="scale(1 1) rotate(0) translate(4 40)">
<title>G</title>
<polygon fill="white" stroke="transparent" points="-4,4 -4,-40 630.65,-40 630.65,4 -4,4"/>
<!-- pbb -->
<g id="node1" class="node">
<title>pbb</title>
<ellipse fill="none" stroke="black" cx="28.6" cy="-18" rx="28.7" ry="18"/>
<text text-anchor="middle" x="28.6" y="-14.3" font-family="Times,serif" font-size="14.00">pbb</text>
</g>
<!-- pandoc -->
<g id="node2" class="node">
<title>pandoc</title>
<ellipse fill="none" stroke="black" cx="137.39" cy="-18" rx="44.39" ry="18"/>
<text text-anchor="middle" x="137.39" y="-14.3" font-family="Times,serif" font-size="14.00">pandoc</text>
</g>
<!-- pbb&#45;&gt;pandoc -->
<g id="edge1" class="edge">
<title>pbb&#45;&gt;pandoc</title>
<path fill="none" stroke="black" d="M57.38,-18C65.2,-18 73.97,-18 82.76,-18"/>
<polygon fill="black" stroke="black" points="83.02,-21.5 93.02,-18 83.02,-14.5 83.02,-21.5"/>
</g>
<!-- skylighting -->
<g id="node3" class="node">
<title>skylighting</title>
<ellipse fill="none" stroke="black" cx="279.98" cy="-18" rx="62.29" ry="18"/>
<text text-anchor="middle" x="279.98" y="-14.3" font-family="Times,serif" font-size="14.00">skylighting</text>
</g>
<!-- pandoc&#45;&gt;skylighting -->
<g id="edge2" class="edge">
<title>pandoc&#45;&gt;skylighting</title>
<path fill="none" stroke="black" d="M181.72,-18C189.84,-18 198.52,-18 207.24,-18"/>
<polygon fill="black" stroke="black" points="207.45,-21.5 217.45,-18 207.45,-14.5 207.45,-21.5"/>
</g>
<!-- KDE/syntax&#45;highlighting -->
<g id="node4" class="node">
<title>KDE/syntax&#45;highlighting</title>
<ellipse fill="none" stroke="black" cx="502.51" cy="-18" rx="124.28" ry="18"/>
<text text-anchor="middle" x="502.51" y="-14.3" font-family="Times,serif" font-size="14.00">KDE/syntax&#45;highlighting</text>
</g>
<!-- skylighting&#45;&gt;KDE/syntax&#45;highlighting -->
<g id="edge3" class="edge">
<title>skylighting&#45;&gt;KDE/syntax&#45;highlighting</title>
<path fill="none" stroke="black" d="M342.41,-18C350.56,-18 359.16,-18 367.96,-18"/>
<polygon fill="black" stroke="black" points="367.97,-21.5 377.97,-18 367.97,-14.5 367.97,-21.5"/>
</g>
</g>
</svg>
