<?xml version="1.0" encoding="UTF-8" standalone="no"?>
<!DOCTYPE svg PUBLIC "-//W3C//DTD SVG 1.1//EN"
 "http://www.w3.org/Graphics/SVG/1.1/DTD/svg11.dtd">
<!-- Generated by graphviz version 2.40.1 (20161225.0304)
 -->
<!-- Title: G Pages: 1 -->
<svg width="307pt" height="44pt"
 viewBox="0.00 0.00 306.88 44.00" xmlns="http://www.w3.org/2000/svg" xmlns:xlink="http://www.w3.org/1999/xlink">
<g id="graph0" class="graph" transform="scale(1 1) rotate(0) translate(4 40)">
<title>G</title>
<polygon fill="#ffffff" stroke="transparent" points="-4,4 -4,-40 302.8847,-40 302.8847,4 -4,4"/>
<!-- pbb -->
<g id="node1" class="node">
<title>pbb</title>
<ellipse fill="none" stroke="#000000" cx="27" cy="-18" rx="27" ry="18"/>
<text text-anchor="middle" x="27" y="-14.3" font-family="Times,serif" font-size="14.00" fill="#000000">pbb</text>
</g>
<!-- pandoc -->
<g id="node2" class="node">
<title>pandoc</title>
<ellipse fill="none" stroke="#000000" cx="126.3968" cy="-18" rx="36.2938" ry="18"/>
<text text-anchor="middle" x="126.3968" y="-14.3" font-family="Times,serif" font-size="14.00" fill="#000000">pandoc</text>
</g>
<!-- pbb&#45;&gt;pandoc -->
<g id="edge1" class="edge">
<title>pbb&#45;&gt;pandoc</title>
<path fill="none" stroke="#000000" d="M54.1606,-18C62.0928,-18 70.9968,-18 79.7725,-18"/>
<polygon fill="#000000" stroke="#000000" points="79.9495,-21.5001 89.9495,-18 79.9495,-14.5001 79.9495,-21.5001"/>
</g>
<!-- skylighting -->
<g id="node3" class="node">
<title>skylighting</title>
<ellipse fill="none" stroke="#000000" cx="248.8391" cy="-18" rx="50.0912" ry="18"/>
<text text-anchor="middle" x="248.8391" y="-14.3" font-family="Times,serif" font-size="14.00" fill="#000000">skylighting</text>
</g>
<!-- pandoc&#45;&gt;skylighting -->
<g id="edge2" class="edge">
<title>pandoc&#45;&gt;skylighting</title>
<path fill="none" stroke="#000000" d="M162.802,-18C170.9087,-18 179.7143,-18 188.4958,-18"/>
<polygon fill="#000000" stroke="#000000" points="188.7501,-21.5001 198.7501,-18 188.7501,-14.5001 188.7501,-21.5001"/>
</g>
</g>
</svg>
