<?xml version="1.0" encoding="UTF-8" standalone="no"?>
<!DOCTYPE svg PUBLIC "-//W3C//DTD SVG 1.1//EN"
 "http://www.w3.org/Graphics/SVG/1.1/DTD/svg11.dtd">
<!-- Generated by graphviz version 2.40.1 (20161225.0304)
 -->
<!-- Title: G Pages: 1 -->
<svg width="410pt" height="44pt"
 viewBox="0.00 0.00 410.17 44.00" xmlns="http://www.w3.org/2000/svg" xmlns:xlink="http://www.w3.org/1999/xlink">
<g id="graph0" class="graph" transform="scale(1 1) rotate(0) translate(4 40)">
<title>G</title>
<polygon fill="#ffffff" stroke="transparent" points="-4,4 -4,-40 406.1707,-40 406.1707,4 -4,4"/>
<!-- Kate -->
<g id="node1" class="node">
<title>Kate</title>
<ellipse fill="none" stroke="#000000" cx="27.2976" cy="-18" rx="27.0966" ry="18"/>
<text text-anchor="middle" x="27.2976" y="-14.3" font-family="Times,serif" font-size="14.00" fill="#000000">Kate</text>
</g>
<!-- KTextEditor -->
<g id="node2" class="node">
<title>KTextEditor</title>
<ellipse fill="none" stroke="#000000" cx="145.8403" cy="-18" rx="55.4913" ry="18"/>
<text text-anchor="middle" x="145.8403" y="-14.3" font-family="Times,serif" font-size="14.00" fill="#000000">KTextEditor</text>
</g>
<!-- Kate&#45;&gt;KTextEditor -->
<g id="edge1" class="edge">
<title>Kate&#45;&gt;KTextEditor</title>
<path fill="none" stroke="#000000" d="M54.7916,-18C62.5439,-18 71.3258,-18 80.3016,-18"/>
<polygon fill="#000000" stroke="#000000" points="80.4735,-21.5001 90.4734,-18 80.4734,-14.5001 80.4735,-21.5001"/>
</g>
<!-- Syntax Highlighting -->
<g id="node3" class="node">
<title>Syntax Highlighting</title>
<ellipse fill="none" stroke="#000000" cx="319.628" cy="-18" rx="82.5854" ry="18"/>
<text text-anchor="middle" x="319.628" y="-14.3" font-family="Times,serif" font-size="14.00" fill="#000000">Syntax Highlighting</text>
</g>
<!-- KTextEditor&#45;&gt;Syntax Highlighting -->
<g id="edge2" class="edge">
<title>KTextEditor&#45;&gt;Syntax Highlighting</title>
<path fill="none" stroke="#000000" d="M201.3056,-18C209.445,-18 218.0095,-18 226.6547,-18"/>
<polygon fill="#000000" stroke="#000000" points="226.8199,-21.5001 236.8199,-18 226.8198,-14.5001 226.8199,-21.5001"/>
</g>
</g>
</svg>
