<?xml version="1.0" encoding="UTF-8" standalone="no"?>
<!DOCTYPE svg PUBLIC "-//W3C//DTD SVG 1.1//EN"
 "http://www.w3.org/Graphics/SVG/1.1/DTD/svg11.dtd">
<!-- Generated by graphviz version 2.40.1 (20161225.0304)
 -->
<!-- Title: g Pages: 1 -->
<svg width="765pt" height="693pt"
 viewBox="0.00 0.00 765.02 693.00" xmlns="http://www.w3.org/2000/svg" xmlns:xlink="http://www.w3.org/1999/xlink">
<g id="graph0" class="graph" transform="scale(1 1) rotate(0) translate(4 689)">
<title>g</title>
<polygon fill="#ffffff" stroke="transparent" points="-4,4 -4,-689 761.0207,-689 761.0207,4 -4,4"/>
<!-- class -->
<g id="node1" class="node">
<title>class</title>
<polygon fill="none" stroke="#000000" points="127.5207,-290.5 127.5207,-339.5 216.5207,-339.5 216.5207,-290.5 127.5207,-290.5"/>
<text text-anchor="middle" x="172.0207" y="-327.5" font-family="Times,serif" font-size="10.00" fill="#000000">class</text>
<polyline fill="none" stroke="#000000" points="127.5207,-320.5 216.5207,-320.5 "/>
<text text-anchor="start" x="135.5207" y="-308.5" font-family="Times,serif" font-size="10.00" fill="#000000">class: character(1)</text>
<text text-anchor="start" x="135.5207" y="-297.5" font-family="Times,serif" font-size="10.00" fill="#000000">description: text</text>
</g>
<!-- continent -->
<g id="node2" class="node">
<title>continent</title>
<polygon fill="none" stroke="#000000" points="357.5207,-.5 357.5207,-49.5 446.5207,-49.5 446.5207,-.5 357.5207,-.5"/>
<text text-anchor="middle" x="402.0207" y="-37.5" font-family="Times,serif" font-size="10.00" fill="#000000">continent</text>
<polyline fill="none" stroke="#000000" points="357.5207,-30.5 446.5207,-30.5 "/>
<text text-anchor="start" x="365.5207" y="-18.5" font-family="Times,serif" font-size="10.00" fill="#000000">code: character(2)</text>
<text text-anchor="start" x="365.5207" y="-7.5" font-family="Times,serif" font-size="10.00" fill="#000000">name: text</text>
</g>
<!-- country -->
<g id="node3" class="node">
<title>country</title>
<polygon fill="none" stroke="#000000" points="347.5207,-101.5 347.5207,-227.5 456.5207,-227.5 456.5207,-101.5 347.5207,-101.5"/>
<text text-anchor="middle" x="402.0207" y="-215.5" font-family="Times,serif" font-size="10.00" fill="#000000">country</text>
<polyline fill="none" stroke="#000000" points="347.5207,-208.5 456.5207,-208.5 "/>
<text text-anchor="start" x="355.5207" y="-196.5" font-family="Times,serif" font-size="10.00" fill="#000000">isocode: integer</text>
<text text-anchor="start" x="355.5207" y="-185.5" font-family="Times,serif" font-size="10.00" fill="#000000">iso: character(2)</text>
<text text-anchor="start" x="355.5207" y="-174.5" font-family="Times,serif" font-size="10.00" fill="#000000">iso3: character(3)</text>
<text text-anchor="start" x="355.5207" y="-163.5" font-family="Times,serif" font-size="10.00" fill="#000000">fips: text</text>
<text text-anchor="start" x="355.5207" y="-152.5" font-family="Times,serif" font-size="10.00" fill="#000000">name: text</text>
<text text-anchor="start" x="355.5207" y="-141.5" font-family="Times,serif" font-size="10.00" fill="#000000">capital: text</text>
<text text-anchor="start" x="355.5207" y="-130.5" font-family="Times,serif" font-size="10.00" fill="#000000">continent: character(2)</text>
<text text-anchor="start" x="355.5207" y="-119.5" font-family="Times,serif" font-size="10.00" fill="#000000">tld: text</text>
<text text-anchor="start" x="355.5207" y="-108.5" font-family="Times,serif" font-size="10.00" fill="#000000">geonameid: bigint</text>
</g>
<!-- country&#45;&gt;continent -->
<g id="edge1" class="edge">
<title>country&#45;&gt;continent</title>
<path fill="none" stroke="#000000" d="M402.0207,-101.2805C402.0207,-86.9752 402.0207,-72.3003 402.0207,-59.6911"/>
<polygon fill="#000000" stroke="#000000" points="405.5208,-59.6387 402.0207,-49.6387 398.5208,-59.6387 405.5208,-59.6387"/>
<text text-anchor="middle" x="467.0207" y="-71.8" font-family="Times,serif" font-size="14.00" fill="#000000">country_continent_fkey</text>
</g>
<!-- district -->
<g id="node4" class="node">
<title>district</title>
<polygon fill="none" stroke="#000000" points="541.0207,-402.5 541.0207,-484.5 633.0207,-484.5 633.0207,-402.5 541.0207,-402.5"/>
<text text-anchor="middle" x="587.0207" y="-472.5" font-family="Times,serif" font-size="10.00" fill="#000000">district</text>
<polyline fill="none" stroke="#000000" points="541.0207,-465.5 633.0207,-465.5 "/>
<text text-anchor="start" x="549.0207" y="-453.5" font-family="Times,serif" font-size="10.00" fill="#000000">isocode: integer</text>
<text text-anchor="start" x="549.0207" y="-442.5" font-family="Times,serif" font-size="10.00" fill="#000000">regcode: text</text>
<text text-anchor="start" x="549.0207" y="-431.5" font-family="Times,serif" font-size="10.00" fill="#000000">discode: text</text>
<text text-anchor="start" x="549.0207" y="-420.5" font-family="Times,serif" font-size="10.00" fill="#000000">name: text</text>
<text text-anchor="start" x="549.0207" y="-409.5" font-family="Times,serif" font-size="10.00" fill="#000000">geonameid: bigint</text>
</g>
<!-- region -->
<g id="node8" class="node">
<title>region</title>
<polygon fill="none" stroke="#000000" points="341.0207,-279.5 341.0207,-350.5 433.0207,-350.5 433.0207,-279.5 341.0207,-279.5"/>
<text text-anchor="middle" x="387.0207" y="-338.5" font-family="Times,serif" font-size="10.00" fill="#000000">region</text>
<polyline fill="none" stroke="#000000" points="341.0207,-331.5 433.0207,-331.5 "/>
<text text-anchor="start" x="349.0207" y="-319.5" font-family="Times,serif" font-size="10.00" fill="#000000">isocode: integer</text>
<text text-anchor="start" x="349.0207" y="-308.5" font-family="Times,serif" font-size="10.00" fill="#000000">regcode: text</text>
<text text-anchor="start" x="349.0207" y="-297.5" font-family="Times,serif" font-size="10.00" fill="#000000">name: text</text>
<text text-anchor="start" x="349.0207" y="-286.5" font-family="Times,serif" font-size="10.00" fill="#000000">geonameid: bigint</text>
</g>
<!-- district&#45;&gt;region -->
<g id="edge2" class="edge">
<title>district&#45;&gt;region</title>
<path fill="none" stroke="#000000" d="M540.988,-411.3232C536.2914,-408.1418 531.5745,-404.9872 527.0207,-402 499.1815,-383.738 467.7295,-364.1053 441.6989,-348.1199"/>
<polygon fill="#000000" stroke="#000000" points="443.4473,-345.0864 433.0921,-342.8458 439.7899,-351.0549 443.4473,-345.0864"/>
<text text-anchor="middle" x="554.5207" y="-372.8" font-family="Times,serif" font-size="14.00" fill="#000000">district_isocode_fkey</text>
</g>
<!-- feature -->
<g id="node5" class="node">
<title>feature</title>
<polygon fill="none" stroke="#000000" points="261.5207,-408 261.5207,-479 350.5207,-479 350.5207,-408 261.5207,-408"/>
<text text-anchor="middle" x="306.0207" y="-467" font-family="Times,serif" font-size="10.00" fill="#000000">feature</text>
<polyline fill="none" stroke="#000000" points="261.5207,-460 350.5207,-460 "/>
<text text-anchor="start" x="269.5207" y="-448" font-family="Times,serif" font-size="10.00" fill="#000000">class: character(1)</text>
<text text-anchor="start" x="269.5207" y="-437" font-family="Times,serif" font-size="10.00" fill="#000000">feature: text</text>
<text text-anchor="start" x="269.5207" y="-426" font-family="Times,serif" font-size="10.00" fill="#000000">description: text</text>
<text text-anchor="start" x="269.5207" y="-415" font-family="Times,serif" font-size="10.00" fill="#000000">comment: text</text>
</g>
<!-- feature&#45;&gt;class -->
<g id="edge3" class="edge">
<title>feature&#45;&gt;class</title>
<path fill="none" stroke="#000000" d="M268.6942,-407.7056C248.7315,-388.5623 224.3645,-365.1954 205.0886,-346.7106"/>
<polygon fill="#000000" stroke="#000000" points="207.3438,-344.024 197.7036,-339.6288 202.4988,-349.0764 207.3438,-344.024"/>
<text text-anchor="middle" x="295.0207" y="-372.8" font-family="Times,serif" font-size="14.00" fill="#000000">feature_class_fkey</text>
</g>
<!-- geoname -->
<g id="node6" class="node">
<title>geoname</title>
<polygon fill="none" stroke="#000000" points="205.0207,-536.5 205.0207,-684.5 297.0207,-684.5 297.0207,-536.5 205.0207,-536.5"/>
<text text-anchor="middle" x="251.0207" y="-672.5" font-family="Times,serif" font-size="10.00" fill="#000000">geoname</text>
<polyline fill="none" stroke="#000000" points="205.0207,-665.5 297.0207,-665.5 "/>
<text text-anchor="start" x="213.0207" y="-653.5" font-family="Times,serif" font-size="10.00" fill="#000000">geonameid: bigint</text>
<text text-anchor="start" x="213.0207" y="-642.5" font-family="Times,serif" font-size="10.00" fill="#000000">name: text</text>
<text text-anchor="start" x="213.0207" y="-631.5" font-family="Times,serif" font-size="10.00" fill="#000000">location: point</text>
<text text-anchor="start" x="213.0207" y="-620.5" font-family="Times,serif" font-size="10.00" fill="#000000">isocode: integer</text>
<text text-anchor="start" x="213.0207" y="-609.5" font-family="Times,serif" font-size="10.00" fill="#000000">regcode: text</text>
<text text-anchor="start" x="213.0207" y="-598.5" font-family="Times,serif" font-size="10.00" fill="#000000">discode: text</text>
<text text-anchor="start" x="213.0207" y="-587.5" font-family="Times,serif" font-size="10.00" fill="#000000">class: character(1)</text>
<text text-anchor="start" x="213.0207" y="-576.5" font-family="Times,serif" font-size="10.00" fill="#000000">feature: text</text>
<text text-anchor="start" x="213.0207" y="-565.5" font-family="Times,serif" font-size="10.00" fill="#000000">population: bigint</text>
<text text-anchor="start" x="213.0207" y="-554.5" font-family="Times,serif" font-size="10.00" fill="#000000">elevation: bigint</text>
<text text-anchor="start" x="213.0207" y="-543.5" font-family="Times,serif" font-size="10.00" fill="#000000">timezone: text</text>
</g>
<!-- geoname&#45;&gt;class -->
<g id="edge7" class="edge">
<title>geoname&#45;&gt;class</title>
<path fill="none" stroke="#000000" d="M204.8988,-574.2913C179.9404,-551.6556 151.522,-520.1724 138.0207,-485 120.619,-439.6669 138.6538,-383.9554 154.3719,-348.9508"/>
<polygon fill="#000000" stroke="#000000" points="157.6539,-350.1945 158.7124,-339.6526 151.3109,-347.2335 157.6539,-350.1945"/>
<text text-anchor="middle" x="195.0207" y="-439.8" font-family="Times,serif" font-size="14.00" fill="#000000">geoname_class_fkey</text>
</g>
<!-- geoname&#45;&gt;country -->
<g id="edge4" class="edge">
<title>geoname&#45;&gt;country</title>
<path fill="none" stroke="#000000" d="M204.7498,-592.3735C121.6969,-556.8292 -39.677,-472.3616 9.0207,-369 68.6405,-242.4561 241.9053,-192.4996 337.2471,-174.1789"/>
<polygon fill="#000000" stroke="#000000" points="338.158,-177.5695 347.3495,-172.3 336.8781,-170.6876 338.158,-177.5695"/>
<text text-anchor="middle" x="73.5207" y="-372.8" font-family="Times,serif" font-size="14.00" fill="#000000">geoname_isocode_fkey</text>
</g>
<!-- geoname&#45;&gt;district -->
<g id="edge6" class="edge">
<title>geoname&#45;&gt;district</title>
<path fill="none" stroke="#000000" d="M297.1841,-592.4729C353.0144,-570.0042 449.1846,-529.1471 527.0207,-485 528.7145,-484.0393 530.4213,-483.0443 532.1334,-482.0226"/>
<polygon fill="#000000" stroke="#000000" points="534.0362,-484.9611 540.7026,-476.7265 530.356,-479.0066 534.0362,-484.9611"/>
<text text-anchor="middle" x="558.0207" y="-506.8" font-family="Times,serif" font-size="14.00" fill="#000000">geoname_isocode_fkey2</text>
</g>
<!-- geoname&#45;&gt;feature -->
<g id="edge8" class="edge">
<title>geoname&#45;&gt;feature</title>
<path fill="none" stroke="#000000" d="M244.7028,-536.2852C245.7147,-524.8727 247.9384,-513.4278 252.0207,-503 254.1708,-497.5077 257.0837,-492.2066 260.4488,-487.1833"/>
<polygon fill="#000000" stroke="#000000" points="263.3611,-489.1313 266.484,-479.0072 257.7292,-484.9741 263.3611,-489.1313"/>
<text text-anchor="middle" x="312.5207" y="-506.8" font-family="Times,serif" font-size="14.00" fill="#000000">geoname_class_fkey1</text>
</g>
<!-- geoname&#45;&gt;region -->
<g id="edge5" class="edge">
<title>geoname&#45;&gt;region</title>
<path fill="none" stroke="#000000" d="M297.1144,-588.3205C324.1827,-572.674 356.2763,-548.9837 373.0207,-518 387.1625,-491.832 388.7571,-412.251 388.1925,-360.8509"/>
<polygon fill="#000000" stroke="#000000" points="391.6894,-360.605 388.0484,-350.6555 384.6901,-360.704 391.6894,-360.605"/>
<text text-anchor="middle" x="457.0207" y="-439.8" font-family="Times,serif" font-size="14.00" fill="#000000">geoname_isocode_fkey1</text>
</g>
<!-- neighbour -->
<g id="node7" class="node">
<title>neighbour</title>
<polygon fill="none" stroke="#000000" points="504.0207,-290.5 504.0207,-339.5 596.0207,-339.5 596.0207,-290.5 504.0207,-290.5"/>
<text text-anchor="middle" x="550.0207" y="-327.5" font-family="Times,serif" font-size="10.00" fill="#000000">neighbour</text>
<polyline fill="none" stroke="#000000" points="504.0207,-320.5 596.0207,-320.5 "/>
<text text-anchor="start" x="512.0207" y="-308.5" font-family="Times,serif" font-size="10.00" fill="#000000">isocode: integer</text>
<text text-anchor="start" x="512.0207" y="-297.5" font-family="Times,serif" font-size="10.00" fill="#000000">neighbour: integer</text>
</g>
<!-- neighbour&#45;&gt;country -->
<g id="edge9" class="edge">
<title>neighbour&#45;&gt;country</title>
<path fill="none" stroke="#000000" d="M508.7404,-290.2289C496.2581,-281.7664 482.9702,-271.7111 472.0207,-261 464.0676,-253.2202 456.3682,-244.4528 449.1665,-235.4557"/>
<polygon fill="#000000" stroke="#000000" points="451.8804,-233.2441 442.972,-227.509 446.3595,-237.5477 451.8804,-233.2441"/>
<text text-anchor="middle" x="539.0207" y="-249.8" font-family="Times,serif" font-size="14.00" fill="#000000">neighbour_isocode_fkey</text>
</g>
<!-- neighbour&#45;&gt;country -->
<g id="edge10" class="edge">
<title>neighbour&#45;&gt;country</title>
<path fill="none" stroke="#000000" d="M589.4329,-290.248C604.7474,-277.4474 616.4031,-261.3283 606.0207,-246 575.0704,-200.3063 513.9279,-180.2294 466.6154,-171.4091"/>
<polygon fill="#000000" stroke="#000000" points="467.197,-167.9578 456.7452,-169.6926 465.9976,-174.8543 467.197,-167.9578"/>
<text text-anchor="middle" x="683.0207" y="-249.8" font-family="Times,serif" font-size="14.00" fill="#000000">neighbour_neighbour_fkey</text>
</g>
<!-- region&#45;&gt;country -->
<g id="edge11" class="edge">
<title>region&#45;&gt;country</title>
<path fill="none" stroke="#000000" d="M342.3872,-279.4753C334.9086,-269.3681 330.7709,-257.8617 335.0207,-246 336.9127,-240.7192 339.3108,-235.5355 342.067,-230.5013"/>
<polygon fill="#000000" stroke="#000000" points="345.2541,-231.9912 347.3827,-221.6124 339.2464,-228.3985 345.2541,-231.9912"/>
<text text-anchor="middle" x="392.0207" y="-249.8" font-family="Times,serif" font-size="14.00" fill="#000000">region_isocode_fkey</text>
</g>
</g>
</svg>
